<?xml version="1.0" encoding="UTF-8" standalone="no"?>
<svg
   width="1266.3379"
   height="759.31323"
   viewBox="0 0 1266.3379 759.31323"
   fill="none"
   version="1.1"
   id="svg44"
   sodipodi:docname="background-swirl.svg"
   inkscape:version="1.2.1 (9c6d41e410, 2022-07-14)"
   xmlns:inkscape="http://www.inkscape.org/namespaces/inkscape"
   xmlns:sodipodi="http://sodipodi.sourceforge.net/DTD/sodipodi-0.dtd"
   xmlns="http://www.w3.org/2000/svg"
   xmlns:svg="http://www.w3.org/2000/svg">
  <defs
     id="defs48" />
  <sodipodi:namedview
     id="namedview46"
     pagecolor="#ffffff"
     bordercolor="#000000"
     borderopacity="0.25"
     inkscape:showpageshadow="2"
     inkscape:pageopacity="0.0"
     inkscape:pagecheckerboard="0"
     inkscape:deskcolor="#d1d1d1"
     showgrid="false"
     inkscape:zoom="0.62858457"
     inkscape:cx="494.76239"
     inkscape:cy="510.67114"
     inkscape:window-width="1920"
     inkscape:window-height="1011"
     inkscape:window-x="0"
     inkscape:window-y="32"
     inkscape:window-maximized="1"
     inkscape:current-layer="svg44" />
  <path
     id="path42"
     style="fill:#00154a;fill-opacity:1"
     d="M 1084.6445,0.01048519 C 1038.4621,-0.40352971 994.18372,11.463897 964.57812,31.93822 c -45.9,27.684172 -293.5,169.375 -293.5,169.375 0,0 -202.50017,80.99896 -374,40.5 C 166.52785,210.98357 74.04887,149.57188 0,105.39916 v 652.85156 l 0.57812,1.0625 c 0,0 286.50006,-128.00002 343,-143.5 56.49994,-15.50098 377.0001,-149.5 499,-146.5 121.9999,3 146.5001,15.00008 258.99998,96.5 47.0859,34.11069 108.8101,42.84984 164.7598,41.65039 V 106.48119 C 1259.0662,91.799235 1251.9075,78.98712 1245.0781,70.31322 1206.5469,21.375769 1144.0219,0.54279005 1084.6445,0.01048519 Z" />
</svg>
